<?xml version="1.0" encoding="UTF-8"?>
<svg version="1.1" xmlns="http://www.w3.org/2000/svg" width="2048" height="681" viewBox="0 0 2048 681">
<path d="M0 0 C3.43752007 1.5277867 6.18953688 3.50181056 9 6 C9 6.66 9 7.32 9 8 C9.66 8 10.32 8 11 8 C11 8.66 11 9.32 11 10 C11.88945312 10.39638672 11.88945312 10.39638672 12.796875 10.80078125 C15.08029054 12.04370425 16.47426723 13.30401646 18.25 15.1875 C23.02074793 20.10126821 28.16133307 24.52900489 33.5 28.8125 C34.325 29.534375 35.15 30.25625 36 31 C36 31.66 36 32.32 36 33 C36.66 33 37.32 33 38 33 C38 33.66 38 34.32 38 35 C38.66 35 39.32 35 40 35 C40 35.66 40 36.32 40 37 C40.88945312 37.39638672 40.88945312 37.39638672 41.796875 37.80078125 C44.08029054 39.04370425 45.47426723 40.30401646 47.25 42.1875 C52.02074793 47.10126821 57.16133307 51.52900489 62.5 55.8125 C63.325 56.534375 64.15 57.25625 65 58 C65 58.66 65 59.32 65 60 C65.66 60 66.32 60 67 60 C67 60.66 67 61.32 67 62 C67.66 62 68.32 62 69 62 C69 62.66 69 63.32 69 64 C69.58265625 64.268125 70.1653125 64.53625 70.765625 64.8125 C73.02786601 66.01480991 74.80576318 67.33825913 76.75 69 C77.36359375 69.515625 77.9771875 70.03125 78.609375 70.5625 C80 72 80 72 80 74 C80.57492187 74.24621094 81.14984375 74.49242188 81.7421875 74.74609375 C84.35639827 76.19793053 86.06336208 77.90287549 88.125 80.0625 C90.77905 82.91571933 90.77905 82.91571933 94 85 C94 85.66 94 86.32 94 87 C94.55171875 87.22300781 95.1034375 87.44601563 95.671875 87.67578125 C98.7305676 89.41554097 100.8073812 91.65764482 103.25 94.1875 C106.32913186 97.33513595 109.40122506 100.44841617 112.75 103.3125 C116.59869792 106.60579639 120.30188101 110.03990454 124 113.5 C124.63929443 114.098125 125.27858887 114.69625 125.93725586 115.3125 C129.3537905 118.51300083 132.7651422 121.71900015 136.17578125 124.92578125 C148.09807938 136.17679679 148.09807938 136.17679679 160.3828125 147.02734375 C161.12273437 147.65769531 161.86265625 148.28804687 162.625 148.9375 C163.27726563 149.48277344 163.92953125 150.02804688 164.6015625 150.58984375 C166 152 166 152 166 154 C166.5775 154.24878906 167.155 154.49757812 167.75 154.75390625 C170.31784817 156.17603049 171.97749044 157.81623509 174 159.9375 C176.01511268 162.04313532 177.88662023 163.91791777 180.25 165.62890625 C180.8275 166.08136719 181.405 166.53382813 182 167 C182 167.66 182 168.32 182 169 C182.66 169 183.32 169 184 169 C184 169.66 184 170.32 184 171 C184.556875 171.2475 185.11375 171.495 185.6875 171.75 C188.42410913 173.22924818 190.67650869 174.93467439 193 177 C193 177.66 193 178.32 193 179 C193.66 179 194.32 179 195 179 C195 179.66 195 180.32 195 181 C195.57492187 181.24621094 196.14984375 181.49242187 196.7421875 181.74609375 C199.35639827 183.19793053 201.06336208 184.90287549 203.125 187.0625 C205.77905 189.91571933 205.77905 189.91571933 209 192 C209 192.66 209 193.32 209 194 C209.58265625 194.268125 210.1653125 194.53625 210.765625 194.8125 C213.02786601 196.01480991 214.80576318 197.33825913 216.75 199 C217.36359375 199.515625 217.9771875 200.03125 218.609375 200.5625 C220 202 220 202 220 204 C220.66 204 221.32 204 222 204 C222 204.66 222 205.32 222 206 C222.66 206 223.32 206 224 206 C224 206.66 224 207.32 224 208 C224.58265625 208.25394531 225.1653125 208.50789062 225.765625 208.76953125 C228.24188033 210.13320333 229.80520626 211.64225203 231.75 213.6875 C236.53753342 218.59984807 241.56648476 223.12416534 247 227.3125 C247.66 227.869375 248.32 228.42625 249 229 C249 229.66 249 230.32 249 231 C249.66 231 250.32 231 251 231 C251 231.66 251 232.32 251 233 C251.66 233 252.32 233 253 233 C253 233.66 253 234.32 253 235 C253.58265625 235.25394531 254.1653125 235.50789062 254.765625 235.76953125 C257.24188033 237.13320333 258.80520626 238.64225203 260.75 240.6875 C265.53753342 245.59984807 270.56648476 250.12416534 276 254.3125 C276.66 254.869375 277.32 255.42625 278 256 C278 256.66 278 257.32 278 258 C278.56203125 258.23332031 279.1240625 258.46664063 279.703125 258.70703125 C282.56734142 260.31937076 284.47252021 262.3193562 286.75 264.6875 C291.69733261 269.73639076 296.87010655 274.36486634 302.2734375 278.9140625 C303.37558594 279.85378906 303.37558594 279.85378906 304.5 280.8125 C305.1703125 281.37582031 305.840625 281.93914062 306.53125 282.51953125 C308 284 308 284 308 286 C308.66 286 309.32 286 310 286 C310 286.66 310 287.32 310 288 C310.59296875 288.26425781 311.1859375 288.52851563 311.796875 288.80078125 C314.08029054 290.04370425 315.47426723 291.30401646 317.25 293.1875 C322.02074793 298.10126821 327.16133307 302.52900489 332.5 306.8125 C333.7375 307.8953125 333.7375 307.8953125 335 309 C335 309.66 335 310.32 335 311 C335.66 311 336.32 311 337 311 C337 311.66 337 312.32 337 313 C337.66 313 338.32 313 339 313 C339 313.66 339 314.32 339 315 C339.99 315.33 340.98 315.66 342 316 C341.49798372 319.90383715 340.841211 321.62719722 337.75 324.0625 C333.16196724 327.8193674 328.86244425 331.82566863 324.56933594 335.91235352 C321.87877601 338.43180684 319.44835237 340.6189851 316 342 C316 342.66 316 343.32 316 344 C315.34 344 314.68 344 314 344 C314 344.66 314 345.32 314 346 C313.34 346 312.68 346 312 346 C312 346.66 312 347.32 312 348 C310.35546875 349.69140625 310.35546875 349.69140625 308.1875 351.5625 C307.47980469 352.18253906 306.77210938 352.80257813 306.04296875 353.44140625 C304 355 304 355 301 356 C301 356.66 301 357.32 301 358 C299.390625 359.5859375 299.390625 359.5859375 297.25 361.375 C294.93096298 363.33757727 292.74780716 365.2588295 290.625 367.4375 C289 369 289 369 287 369 C287 369.66 287 370.32 287 371 C286.34 371 285.68 371 285 371 C285 371.66 285 372.32 285 373 C283.5390625 374.5078125 283.5390625 374.5078125 281.625 376.125 C280.99851562 376.66382813 280.37203125 377.20265625 279.7265625 377.7578125 C278 379 278 379 276 379 C276 379.66 276 380.32 276 381 C275.34 381 274.68 381 274 381 C274 381.66 274 382.32 274 383 C273.34 383 272.68 383 272 383 C272 383.66 272 384.32 272 385 C270.390625 386.5859375 270.390625 386.5859375 268.25 388.375 C265.93096298 390.33757727 263.74780716 392.2588295 261.625 394.4375 C260 396 260 396 258 396 C258 396.66 258 397.32 258 398 C256.35546875 399.69140625 256.35546875 399.69140625 254.1875 401.5625 C253.47980469 402.18253906 252.77210938 402.80257813 252.04296875 403.44140625 C250 405 250 405 247 406 C246.71898437 406.57621094 246.43796875 407.15242188 246.1484375 407.74609375 C244.54385171 410.89522981 242.25851036 412.71584181 239.625 415.0625 C238.52724732 416.04937191 237.42959364 417.03635396 236.33203125 418.0234375 C235.77338379 418.52198242 235.21473633 419.02052734 234.63916016 419.53417969 C232.17988312 421.73339019 229.745742 423.95955228 227.3125 426.1875 C226.83119629 426.62779541 226.34989258 427.06809082 225.85400391 427.52172852 C220.62365829 432.31998751 215.46842594 437.19780856 210.30712891 442.07006836 C205.05715798 447.02073523 199.75939193 451.91389506 194.41796875 456.765625 C192.8342217 458.22911985 191.29211719 459.73931633 189.80078125 461.296875 C188 463 188 463 186 463 C186 463.66 186 464.32 186 465 C184.77734375 466.234375 184.77734375 466.234375 182.9375 467.75 C179.94376224 470.27984326 177.04402758 472.87939492 174.19921875 475.57421875 C173.19483765 476.52506348 173.19483765 476.52506348 172.17016602 477.49511719 C170.81181735 478.78519979 169.45680222 480.07880187 168.10522461 481.37597656 C167.47495361 481.97249023 166.84468262 482.56900391 166.1953125 483.18359375 C165.62828613 483.72556396 165.06125977 484.26753418 164.47705078 484.82592773 C163 486 163 486 161 486 C161 486.66 161 487.32 161 488 C160.34 488 159.68 488 159 488 C159 488.66 159 489.32 159 490 C158.34 490 157.68 490 157 490 C157 490.66 157 491.32 157 492 C155.77734375 493.234375 155.77734375 493.234375 153.9375 494.75 C150.94376224 497.27984326 148.04402758 499.87939492 145.19921875 502.57421875 C144.19483765 503.52506348 144.19483765 503.52506348 143.17016602 504.49511719 C141.81181735 505.78519979 140.45680222 507.07880187 139.10522461 508.37597656 C138.47495361 508.97249023 137.84468262 509.56900391 137.1953125 510.18359375 C136.62828613 510.72556396 136.06125977 511.26753418 135.47705078 511.82592773 C134 513 134 513 132 513 C132 513.66 132 514.32 132 515 C131.34 515 130.68 515 130 515 C130 515.66 130 516.32 130 517 C129.34 517 128.68 517 128 517 C128 517.66 128 518.32 128 519 C126.77734375 520.234375 126.77734375 520.234375 124.9375 521.75 C121.94376224 524.27984326 119.04402758 526.87939492 116.19921875 529.57421875 C115.19483765 530.52506348 115.19483765 530.52506348 114.17016602 531.49511719 C112.81181735 532.78519979 111.45680222 534.07880187 110.10522461 535.37597656 C109.47495361 535.97249023 108.84468262 536.56900391 108.1953125 537.18359375 C107.62828613 537.72556396 107.06125977 538.26753418 106.47705078 538.82592773 C105 540 105 540 103 540 C103 540.66 103 541.32 103 542 C102.34 542 101.68 542 101 542 C101 542.66 101 543.32 101 544 C99.56201172 545.42993164 99.56201172 545.42993164 97.5546875 547.09765625 C94.47502522 549.7151656 91.49007548 552.38844693 88.5703125 555.18359375 C87.47203125 556.23256836 87.47203125 556.23256836 86.3515625 557.30273438 C84.84131376 558.75071848 83.33357929 560.20132867 81.828125 561.65429688 C80.74144531 562.68973633 80.74144531 562.68973633 79.6328125 563.74609375 C78.98199707 564.37185303 78.33118164 564.9976123 77.66064453 565.64233398 C76 567 76 567 74 567 C74 567.66 74 568.32 74 569 C72.53125 570.4453125 72.53125 570.4453125 70.5 572.125 C67.53322639 574.64257902 64.72425751 577.22168976 62 580 C58.89833242 583.14366308 55.68437575 586.06828524 52.33984375 588.94921875 C49.30768673 591.60678542 46.33925194 594.32962684 43.375 597.0625 C42.83657471 597.55717773 42.29814941 598.05185547 41.7434082 598.56152344 C38.99535608 601.10051665 36.32829594 603.68179439 33.7265625 606.37109375 C31 609 31 609 29 609 C29 609.66 29 610.32 29 611 C27.390625 612.5859375 27.390625 612.5859375 25.25 614.375 C22.93096298 616.33757727 20.74780716 618.2588295 18.625 620.4375 C17 622 17 622 15 622 C15 622.66 15 623.32 15 624 C11.53846154 627 11.53846154 627 9 627 C10.52133119 622.56139088 12.93203811 618.98015702 15.625 615.1875 C19.23186177 610.04460083 22.76603462 604.86390449 26.21484375 599.61328125 C26.93397949 598.52055908 27.65311523 597.42783691 28.39404297 596.30200195 C29.83187831 594.11254879 31.26456067 591.91970233 32.69189453 589.72338867 C33.3517334 588.72154541 34.01157227 587.71970215 34.69140625 586.6875 C35.28123291 585.78386719 35.87105957 584.88023437 36.47875977 583.94921875 C36.98076904 583.30597656 37.48277832 582.66273438 38 582 C38.66 582 39.32 582 40 582 C40.268125 581.278125 40.53625 580.55625 40.8125 579.8125 C41.99901362 577.00233617 43.27485639 574.51583443 45 572 C45.66 572 46.32 572 47 572 C47.25724854 571.28626221 47.51449707 570.57252441 47.77954102 569.8371582 C49.0836918 566.80544461 50.65895265 564.32453658 52.52734375 561.60546875 C53.58501953 560.0587146 53.58501953 560.0587146 54.6640625 558.48071289 C55.42178961 557.38291631 56.17960369 556.28517977 56.9375 555.1875 C57.70747102 554.06467319 58.47700004 552.94154315 59.24609375 551.81811523 C61.49140123 548.54125918 63.74501963 545.27020742 66 542 C67.69241295 539.5429132 69.38470807 537.08574608 71.07641602 534.62817383 C72.00345997 533.28299824 72.93224651 531.93902138 73.86303711 530.59643555 C76.09000678 527.39433287 76.09000678 527.39433287 78 524 C78.66 524 79.32 524 80 524 C80.2479834 523.29576904 80.4959668 522.59153809 80.75146484 521.8659668 C82.16267375 518.62658836 83.92865358 516.02441752 85.9765625 513.14453125 C86.79146773 511.98834066 87.60556279 510.83157873 88.41894531 509.67431641 C88.84308716 509.07282776 89.267229 508.47133911 89.70422363 507.85162354 C91.86637869 504.76197219 93.97575079 501.63699444 96.0859375 498.51171875 C96.72994507 497.55952202 96.72994507 497.55952202 97.38696289 496.58808899 C98.26763941 495.28582353 99.14804891 493.98337744 100.02819824 492.68075562 C113.38043251 472.91955782 113.38043251 472.91955782 120.06787109 463.28979492 C122.18601116 460.23715144 122.18601116 460.23715144 124 457 C124.66 457 125.32 457 126 457 C126.2472583 456.29689697 126.4945166 455.59379395 126.74926758 454.86938477 C128.16959124 451.61092996 129.95262645 448.98761321 132.01171875 446.08984375 C132.82534718 444.93518389 133.63831176 443.78005602 134.45068359 442.62451172 C134.87105896 442.02886414 135.29143433 441.43321655 135.72454834 440.81951904 C137.81306478 437.84010747 139.85390785 434.82873566 141.89453125 431.81640625 C142.29920624 431.21992279 142.70388123 430.62343933 143.12081909 430.00888062 C143.93980359 428.80144545 144.75849885 427.59381405 145.5769043 426.38598633 C146.82858413 424.53876311 148.08121318 422.69218633 149.33398438 420.84570312 C153.27617093 415.1061228 153.27617093 415.1061228 157.08187866 409.27731323 C158.00599394 407.81957758 158.99789355 406.4052633 160 405 C160.66 405 161.32 405 162 405 C162.28875 404.071875 162.5775 403.14375 162.875 402.1875 C164 399 164 399 166 396 C166.66 396 167.32 396 168 396 C168.23847656 395.31035156 168.47695313 394.62070312 168.72265625 393.91015625 C170.24260034 390.4472867 172.26190402 387.50724291 174.4375 384.4375 C175.42039536 383.02943014 176.40206303 381.62050286 177.3828125 380.2109375 C177.94258789 379.4075293 178.50236328 378.60412109 179.07910156 377.77636719 C182.60224116 372.68420355 186.07219915 367.55581958 189.54641724 362.4302063 C190.78794381 360.59872493 192.03047327 358.76792754 193.27319336 356.93725586 C193.66851761 356.35438309 194.06384186 355.77151031 194.47114563 355.17097473 C195.24475805 354.03067129 196.01906482 352.89083857 196.79411316 351.75151062 C199.53843338 347.70943821 202.20427562 343.62133423 204.81518555 339.49194336 C205.20617432 338.99960205 205.59716309 338.50726074 206 338 C206.66 338 207.32 338 208 338 C208.24492188 337.30519531 208.48984375 336.61039062 208.7421875 335.89453125 C210.20250025 332.53399786 212.06281778 329.71425133 214.125 326.6875 C214.84945312 325.61886719 215.57390625 324.55023438 216.3203125 323.44921875 C216.87460937 322.64097656 217.42890625 321.83273437 218 321 C214.20154617 313.69721787 209.68494307 307.02680308 204.9375 300.3125 C202.28889278 296.54360677 199.64218853 292.77339624 197 289 C196.54254395 288.34950684 196.08508789 287.69901367 195.61376953 287.02880859 C193 283.23522052 193 283.23522052 193 281 C192.34 281 191.68 281 191 281 C189.6953125 279.19140625 189.6953125 279.19140625 188.125 276.5625 C185.02845961 271.54905366 181.7383927 266.73121168 178.3125 261.9375 C173.46116854 255.13076538 168.77718019 248.22893132 164.1628418 241.25976562 C161.02099038 236.51805657 157.81398702 231.83196071 154.53515625 227.18359375 C152.85987981 224.80069418 151.20189616 222.40774424 149.5625 220 C149.06878906 219.278125 148.57507813 218.55625 148.06640625 217.8125 C147 216 147 216 147 214 C146.34 214 145.68 214 145 214 C143.6953125 212.19140625 143.6953125 212.19140625 142.125 209.5625 C139.02845961 204.54905366 135.7383927 199.73121168 132.3125 194.9375 C127.46511932 188.13630858 122.78030909 181.24292778 118.17602539 174.27514648 C114.92122018 169.35514269 111.58542712 164.51715719 108.109375 159.75 C107 158 107 158 107 156 C106.34 156 105.68 156 105 156 C101 149.25 101 149.25 101 147 C100.34 147 99.68 147 99 147 C97.47242012 144.9270772 96.07127494 142.85457971 94.6875 140.6875 C93.78904607 139.309057 92.88923946 137.93149499 91.98828125 136.5546875 C91.50697754 135.81702148 91.02567383 135.07935547 90.52978516 134.31933594 C87.86561758 130.28014156 85.11733293 126.29885162 82.375 122.3125 C78.83039252 117.15284845 75.31152775 111.98225434 71.875 106.75 C68.96388906 102.35288263 65.89352116 98.10623902 62.75 93.875 C58.22874566 87.77967354 53.95989109 81.55019543 49.78466797 75.21362305 C46.89110038 70.82559091 43.95932815 66.4686702 40.9765625 62.140625 C40.29561523 61.1513501 39.61466797 60.1620752 38.91308594 59.14282227 C37.57902604 57.20837149 36.24127415 55.27646036 34.89941406 53.34741211 C34.2906543 52.4631958 33.68189453 51.57897949 33.0546875 50.66796875 C32.51312012 49.88703857 31.97155273 49.1061084 31.41357422 48.30151367 C29.96134473 45.93706335 28.95306786 43.6012368 28 41 C27.34 41 26.68 41 26 41 C24.2734375 38.6640625 24.2734375 38.6640625 22.375 35.625 C21.42753906 34.12839844 21.42753906 34.12839844 20.4609375 32.6015625 C19 30 19 30 19 28 C18.34 28 17.68 28 17 28 C15.625 26.12109375 15.625 26.12109375 14 23.4375 C10.54989933 17.83564521 6.92262503 12.3782203 3.20117188 6.95288086 C0 2.2187447 0 2.2187447 0 0 Z " fill="#E42515" transform="translate(396,29)"/>
<path d="M0 0 C2.39753455 2.15483933 4.72439978 4.36649226 7.046875 6.6015625 C8.49894018 7.85883845 9.95693348 9.10931355 11.421875 10.3515625 C14.31982393 12.87993495 16.8586345 15.41037844 19.046875 18.6015625 C19.046875 19.2615625 19.046875 19.9215625 19.046875 20.6015625 C19.706875 20.6015625 20.366875 20.6015625 21.046875 20.6015625 C22.71758817 22.75485826 24.23869921 24.89241786 25.734375 27.1640625 C26.17990723 27.83791992 26.62543945 28.51177734 27.08447266 29.20605469 C31.48991164 36.03218648 34.9074938 43.12244846 38.046875 50.6015625 C38.44648437 51.53355469 38.84609375 52.46554687 39.2578125 53.42578125 C42.36348665 61.23666849 43.67857944 69.34821283 45.046875 77.6015625 C45.2325 78.58511719 45.418125 79.56867188 45.609375 80.58203125 C46.1421428 84.25908046 46.30709673 87.89329049 46.359375 91.6015625 C46.38837891 92.28734375 46.41738281 92.973125 46.44726562 93.6796875 C46.51122262 98.83560518 45.26470553 101.63349097 42.046875 105.6015625 C37.05223732 110.00160045 34.13908156 110.74780028 27.63119507 110.72181702 C26.85769482 110.72267144 26.08419458 110.72352587 25.28725493 110.72440618 C22.68155173 110.7260603 20.07591216 110.72054071 17.47021484 110.71508789 C15.60787457 110.71480598 13.74553418 110.71496383 11.88319397 110.7155304 C6.81528254 110.71581821 1.74739461 110.70992402 -3.32051134 110.70295644 C-8.61230381 110.69672028 -13.90409676 110.69611889 -19.19589233 110.69493103 C-29.22209129 110.69181849 -39.24827938 110.68360614 -49.27447355 110.67358154 C-60.68663507 110.66241801 -72.0987971 110.65690935 -83.51096272 110.65188611 C-106.99168951 110.64142347 -130.47240665 110.62382551 -153.953125 110.6015625 C-153.18867418 113.14400357 -152.41680862 115.68379632 -151.640625 118.22265625 C-151.42728516 118.93498413 -151.21394531 119.64731201 -150.99414062 120.38122559 C-148.58250836 128.22577941 -144.89174534 135.02833728 -140.078125 141.6640625 C-137.953125 144.6015625 -137.953125 144.6015625 -137.953125 146.6015625 C-137.293125 146.6015625 -136.633125 146.6015625 -135.953125 146.6015625 C-134.5078125 148.140625 -134.5078125 148.140625 -132.828125 150.2265625 C-129.71240251 153.926073 -126.44765734 156.6641003 -122.45703125 159.375 C-121.96074219 159.77976562 -121.46445313 160.18453125 -120.953125 160.6015625 C-120.953125 161.2615625 -120.953125 161.9215625 -120.953125 162.6015625 C-119.6846875 162.9728125 -119.6846875 162.9728125 -118.390625 163.3515625 C-115.28539938 164.48073545 -112.686514 165.90635862 -109.84204102 167.55859375 C-92.46705288 177.15222815 -71.0940878 179.84047449 -51.890625 174.57421875 C-39.52183571 170.47870208 -26.86952411 165.07257234 -17.44140625 155.88671875 C-15.953125 154.6015625 -15.953125 154.6015625 -13.953125 154.6015625 C-13.953125 153.9415625 -13.953125 153.2815625 -13.953125 152.6015625 C-8.19541052 149.25161953 -3.6527158 147.3940106 3.046875 148.6015625 C5.92675761 149.71326427 8.36338076 151.04025676 11.046875 152.6015625 C11.046875 153.2615625 11.046875 153.9215625 11.046875 154.6015625 C11.706875 154.6015625 12.366875 154.6015625 13.046875 154.6015625 C16.07254132 161.78752002 17.49180277 167.75182662 14.4296875 175.34765625 C10.579303 181.62356545 4.15155236 187.56308363 -1.953125 191.6015625 C-2.613125 191.6015625 -3.273125 191.6015625 -3.953125 191.6015625 C-3.953125 192.2615625 -3.953125 192.9215625 -3.953125 193.6015625 C-34.4663958 211.79216625 -68.62011045 217.01405851 -103.37109375 208.79296875 C-121.11933022 204.04566022 -137.92432876 195.57804987 -151.953125 183.6015625 C-151.953125 182.9415625 -151.953125 182.2815625 -151.953125 181.6015625 C-152.51 181.3746875 -153.066875 181.1478125 -153.640625 180.9140625 C-156.61472088 179.22606214 -158.67321365 177.13479733 -160.953125 174.6015625 C-160.953125 173.9415625 -160.953125 173.2815625 -160.953125 172.6015625 C-161.613125 172.6015625 -162.273125 172.6015625 -162.953125 172.6015625 C-164.62864159 170.51018028 -166.17753888 168.42386822 -167.703125 166.2265625 C-168.15196045 165.58678467 -168.6007959 164.94700684 -169.06323242 164.2878418 C-182.3673888 145.15757261 -189.83397318 125.18763263 -190.640625 101.7890625 C-190.67824951 100.73444824 -190.71587402 99.67983398 -190.75463867 98.59326172 C-191.37819977 78.16496038 -188.06701869 59.93146634 -178.953125 41.6015625 C-178.45683594 40.59351563 -177.96054688 39.58546875 -177.44921875 38.546875 C-172.02890324 28.11978304 -163.22854289 12.29965329 -151.953125 7.6015625 C-151.953125 6.9415625 -151.953125 6.2815625 -151.953125 5.6015625 C-137.52999775 -7.31915566 -118.7398652 -16.22327843 -100.203125 -21.2109375 C-99.05106567 -21.5217627 -99.05106567 -21.5217627 -97.87573242 -21.83886719 C-64.38940422 -30.33673501 -26.71340537 -21.69580806 0 0 Z M-126.953125 30.6015625 C-126.953125 31.2615625 -126.953125 31.9215625 -126.953125 32.6015625 C-127.53449219 32.85035156 -128.11585937 33.09914063 -128.71484375 33.35546875 C-140.41918052 39.87149568 -147.75675941 56.49124569 -151.953125 68.6015625 C-152.283125 70.9115625 -152.613125 73.2215625 -152.953125 75.6015625 C-99.493125 75.6015625 -46.033125 75.6015625 9.046875 75.6015625 C3.88034833 58.81035083 -3.09404887 44.82674051 -15.953125 32.6015625 C-16.613125 32.6015625 -17.273125 32.6015625 -17.953125 32.6015625 C-17.953125 31.9415625 -17.953125 31.2815625 -17.953125 30.6015625 C-20.25397328 28.88191808 -22.54973782 27.2908164 -24.953125 25.7265625 C-25.60152344 25.29214844 -26.24992187 24.85773438 -26.91796875 24.41015625 C-33.87958356 19.81962609 -40.90886435 16.33728807 -48.890625 13.9140625 C-49.59227783 13.69983643 -50.29393066 13.48561035 -51.0168457 13.26489258 C-56.04267759 11.77664103 -60.7218269 10.72849174 -65.953125 10.6015625 C-66.93410156 10.56289063 -67.91507813 10.52421875 -68.92578125 10.484375 C-90.77615275 10.01559468 -109.81031516 17.31754815 -126.953125 30.6015625 Z " fill="#115EA9" transform="translate(1966.953125,258.3984375)"/>
<path d="M0 0 C1.45986328 0.70962891 1.45986328 0.70962891 2.94921875 1.43359375 C16.36213398 8.34565079 28.07613832 17.6584438 38 29 C38 29.66 38 30.32 38 31 C38.99 31.33 39.98 31.66 41 32 C58.23520294 52.35774414 69.30076292 81.61965036 68.3359375 108.44921875 C67.6797474 113.4316854 66.20076424 117.02370876 62.42041874 120.41846752 C54.58821969 125.50729405 45.78549384 124.70683542 36.81225586 124.65942383 C34.96857624 124.66788479 33.12490556 124.67853245 31.28125 124.69119263 C26.29627935 124.71926655 21.31174007 124.71688015 16.32671428 124.70889878 C11.10963684 124.70576785 5.89269538 124.73082529 0.67567444 124.75285339 C-9.19448054 124.79026582 -19.06449775 124.80243974 -28.93471664 124.8054778 C-40.17540653 124.81017165 -51.41595867 124.84310552 -62.65658772 124.87837565 C-85.77104181 124.9502719 -108.88544311 124.98682084 -132 125 C-131.36902472 127.08515305 -130.73527049 129.16946533 -130.1003418 131.25341797 C-129.74771774 132.41420868 -129.39509369 133.57499939 -129.03178406 134.77096558 C-125.83746901 144.76777951 -120.64686773 153.0763229 -113.72265625 160.890625 C-112 163 -112 163 -112 165 C-111.34 165 -110.68 165 -110 165 C-110 165.66 -110 166.32 -110 167 C-109.34 167 -108.68 167 -108 167 C-108 167.66 -108 168.32 -108 169 C-107.47921875 169.23976563 -106.9584375 169.47953125 -106.421875 169.7265625 C-103.22931065 171.40523343 -100.26046118 173.39589307 -97.25 175.375 C-89.88913732 180.17524662 -89.88913732 180.17524662 -82 184 C-81.01515625 184.4434375 -80.0303125 184.886875 -79.015625 185.34375 C-62.17169973 191.84998723 -40.13128719 191.9912103 -23.26171875 185.48046875 C-22.18535156 184.99191406 -21.10898437 184.50335938 -20 184 C-18.40091797 183.31357422 -18.40091797 183.31357422 -16.76953125 182.61328125 C-8.49774979 178.78666499 -1.23748323 173.5780478 5.7109375 167.7109375 C11.46690317 163.04349256 15.66255873 160.79591336 23.1953125 161.34375 C29.04474964 162.71242053 32.49119841 165.97254786 36 170.6875 C37.85455884 176.83072614 37.94442956 182.55306888 35.625 188.5625 C21.8751799 208.61432099 -1.34346631 218.87542758 -24.2578125 223.68359375 C-44.14844058 227.02946506 -65.57759435 226.47940338 -85 221 C-86.81371094 220.49146484 -86.81371094 220.49146484 -88.6640625 219.97265625 C-99.03162096 216.62405404 -108.48977201 211.24023631 -118 206 C-118 205.34 -118 204.68 -118 204 C-119.07507813 203.62875 -119.07507813 203.62875 -120.171875 203.25 C-129.1846621 199.26644769 -137.08540979 190.72547709 -143 183 C-143 182.34 -143 181.68 -143 181 C-143.66 181 -144.32 181 -145 181 C-164.49099499 157.74829436 -170.96930768 126.5261244 -168.84765625 96.87060547 C-166.83640016 74.87505734 -159.20487282 55.30730923 -147 37 C-146.34 37 -145.68 37 -145 37 C-144.74259033 36.25580811 -144.48518066 35.51161621 -144.2199707 34.74487305 C-142.95074792 31.88918529 -141.67063391 30.28399717 -139.48046875 28.08203125 C-138.78759766 27.38529297 -138.09472656 26.68855469 -137.38085938 25.97070312 C-136.65705078 25.25849609 -135.93324219 24.54628906 -135.1875 23.8125 C-134.47529297 23.08869141 -133.76308594 22.36488281 -133.02929688 21.61914062 C-132.33255859 20.92626953 -131.63582031 20.23339844 -130.91796875 19.51953125 C-130.28656982 18.89151611 -129.6551709 18.26350098 -129.00463867 17.61645508 C-126.78164839 15.82393058 -124.68653235 14.92924877 -122 14 C-122 13.34 -122 12.68 -122 12 C-113.4294495 5.71300259 -103.71857786 1.19422069 -94 -3 C-93.10023438 -3.39058594 -92.20046875 -3.78117188 -91.2734375 -4.18359375 C-88.54254574 -5.27003211 -85.8180943 -6.16354653 -83 -7 C-82.09096924 -7.27287842 -82.09096924 -7.27287842 -81.16357422 -7.55126953 C-53.86218266 -15.39238296 -25.21096489 -12.5028838 0 0 Z M-111 49 C-111.33 49.99 -111.66 50.98 -112 52 C-112.66 52 -113.32 52 -114 52 C-115.821042 54.17458278 -115.821042 54.17458278 -117.625 56.875 C-118.25664062 57.77992188 -118.88828125 58.68484375 -119.5390625 59.6171875 C-121.17423105 61.81833706 -121.17423105 61.81833706 -121 64 C-121.66 64 -122.32 64 -123 64 C-123.95173821 65.90963654 -124.88545979 67.82825241 -125.8125 69.75 C-126.33457031 70.81734375 -126.85664063 71.8846875 -127.39453125 72.984375 C-129.45669812 78.1423009 -130.65274283 83.61097133 -132 89 C-78.54 89 -25.08 89 30 89 C29.20532938 83.43730565 28.17443361 79.30611451 25.9375 74.3125 C25.63021973 73.61987061 25.32293945 72.92724121 25.00634766 72.21362305 C20.76123055 62.9475718 14.89751654 51.03232155 5 47 C5 46.34 5 45.68 5 45 C4.34 45 3.68 45 3 45 C3 44.34 3 43.68 3 43 C0.6570678 41.30822039 -1.66893002 39.76256606 -4.125 38.25 C-4.84913086 37.80261475 -5.57326172 37.35522949 -6.31933594 36.89428711 C-40.75632274 16.07638388 -82.52527338 20.0506946 -111 49 Z " fill="#1661AA" transform="translate(475,246)"/>
<path d="M0 0 C0.97839844 0.20625 1.95679688 0.4125 2.96484375 0.625 C19.42994156 4.35454596 37.24431597 12.70286612 50 24 C50 24.66 50 25.32 50 26 C50.81210938 26.32484375 50.81210938 26.32484375 51.640625 26.65625 C54.81645344 28.46499997 57.20728081 30.91723799 59.75 33.5 C60.25660156 33.99886719 60.76320313 34.49773437 61.28515625 35.01171875 C65 38.74658861 65 38.74658861 65 41 C65.66 41 66.32 41 67 41 C80.99769711 58.48260096 89.69058804 77.92931738 93 100 C93.17254807 100.99818253 93.34509613 101.99636505 93.52287292 103.02479553 C94.23622939 108.07335008 94.16381241 113.13475732 94.17700195 118.22436523 C94.18357315 119.33419769 94.19014435 120.44403015 94.19691467 121.5874939 C94.21655772 125.24452795 94.22828734 128.90152121 94.23828125 132.55859375 C94.24235678 133.8109337 94.2464323 135.06327366 94.25063133 136.35356331 C94.26930792 142.29519229 94.28388601 148.23680842 94.2922433 154.17845958 C94.30202224 161.01556636 94.32837554 167.85234998 94.36874419 174.68934292 C94.40260962 180.63042883 94.41439325 186.571436 94.41844749 192.51262093 C94.42331482 195.03196474 94.43493288 197.55130505 94.45348549 200.07058525 C94.47784427 203.59606587 94.47691785 207.12070115 94.4699707 210.64624023 C94.48918579 212.19960335 94.48918579 212.19960335 94.50878906 213.78434753 C94.46409917 220.01759907 93.63255695 224.82277377 90 230 C84.48215109 235.12371684 80.6494572 235.35485052 73.2734375 235.2734375 C68.59627942 234.8827441 66.61719654 234.00150351 63 231 C58.01842964 224.51576217 58.34175257 218.01577948 58.25 210.0625 C58.22035156 208.80630859 58.19070313 207.55011719 58.16015625 206.25585938 C58.08976804 203.17050946 58.03691498 200.08590177 58 197 C57.29617188 197.67804688 56.59234375 198.35609375 55.8671875 199.0546875 C50.3200108 204.31466253 44.64617173 209.21823538 38.4375 213.6875 C37.84243652 214.1211084 37.24737305 214.5547168 36.63427734 215.00146484 C32.37667524 218 32.37667524 218 29 218 C29 218.66 29 219.32 29 220 C-3.63437278 236.3538307 -33.50566142 238.47210911 -68.47265625 227.203125 C-74.30696985 225.08155642 -79.69392821 222.10293847 -85.125 219.125 C-85.87749023 218.71427246 -86.62998047 218.30354492 -87.40527344 217.88037109 C-92.51277674 215.01985576 -97.68074749 211.98779204 -102 208 C-102 207.34 -102 206.68 -102 206 C-102.56203125 205.7628125 -103.1240625 205.525625 -103.703125 205.28125 C-106.51894042 203.71052303 -108.47955416 201.78528536 -110.75 199.5 C-111.54921875 198.7059375 -112.3484375 197.911875 -113.171875 197.09375 C-115 195 -115 195 -115 193 C-115.66 193 -116.32 193 -117 193 C-136.87163378 168.55211861 -143.65206174 139.95740722 -143 109 C-142.98324219 107.93136719 -142.96648437 106.86273438 -142.94921875 105.76171875 C-141.60576465 75.55319368 -124.77884078 47.5227514 -103.125 27.3125 C-98.10549022 22.89906106 -92.71967901 19.42848684 -87 16 C-86.24589844 15.49855469 -85.49179688 14.99710938 -84.71484375 14.48046875 C-60.87004993 -1.02069224 -27.5897555 -6.42556169 0 0 Z M-77 51 C-77 51.66 -77 52.32 -77 53 C-77.58265625 53.2578125 -78.1653125 53.515625 -78.765625 53.78125 C-81.1802903 55.09834017 -82.81740177 56.55088384 -84.75 58.5 C-85.36359375 59.1084375 -85.9771875 59.716875 -86.609375 60.34375 C-88.21434088 61.89484277 -88.21434088 61.89484277 -88 64 C-88.66 64 -89.32 64 -90 64 C-103.59997018 80.44861259 -109.18022495 103.03491318 -108 124 C-104.95646196 147.22195562 -94.40655009 165.92309843 -77.06640625 181.41796875 C-75.16907295 183.20263191 -75.16907295 183.20263191 -73 183 C-73 183.66 -73 184.32 -73 185 C-56.74574499 197.69744156 -35.01460801 201.42567485 -15 200 C-0.53403023 198.13942511 14.31826625 191.74652577 26 183 C26 182.34 26 181.68 26 181 C26.57492187 180.74605469 27.14984375 180.49210938 27.7421875 180.23046875 C40.73069354 173.15195767 50.92201807 154.52447859 55.125 140.75 C60.84850083 121.16841647 60.87117544 100.24487861 51.52734375 81.69921875 C45.52580618 71.0929209 38.95775102 61.36056762 30 53 C29.34 53 28.68 53 28 53 C28 52.34 28 51.68 28 51 C14.81134335 41.50165109 -1.56622659 33.62578938 -18 33 C-19.47726562 32.94005859 -19.47726562 32.94005859 -20.984375 32.87890625 C-41.75146589 32.45660895 -60.39369083 38.57320606 -77 51 Z " fill="#115EA9" transform="translate(1440,236)"/>
<path d="M0 0 C1.354117 0.77092058 2.70827949 1.54176127 4.0625 2.3125 C5.031875 2.869375 6.00125 3.42625 7 4 C7 4.66 7 5.32 7 6 C7.68578125 6.20753906 8.3715625 6.41507812 9.078125 6.62890625 C12.95646866 8.4488242 15.65702553 11.01481289 18.75 13.9375 C19.33910156 14.47568359 19.92820312 15.01386719 20.53515625 15.56835938 C24.86962809 19.60888428 24.86962809 19.60888428 26 23 C26.66 23 27.32 23 28 23 C28 23.66 28 24.32 28 25 C28.66 25 29.32 25 30 25 C47.26289753 46.56071434 57.84734285 72.2253367 57.46655273 99.94921875 C57.43732648 102.26374122 57.44606572 104.57599207 57.45898438 106.890625 C57.44625076 115.9721077 56.5345559 124.21909675 54 133 C53.80672119 133.7101123 53.61344238 134.42022461 53.41430664 135.15185547 C49.08609141 150.44393389 41.87916712 163.640793 32 176 C31.34 176.99 30.68 177.98 30 179 C29.34 179 28.68 179 28 179 C27.75507812 179.56976563 27.51015625 180.13953125 27.2578125 180.7265625 C23.41286901 187.67611875 15.73634505 193.8806523 9 198 C8.34 198 7.68 198 7 198 C7 198.66 7 199.32 7 200 C-13.48390275 215.56776609 -40.87698079 220.83113748 -66 220 C-67.03253906 219.97164062 -68.06507813 219.94328125 -69.12890625 219.9140625 C-93.31909545 218.75821728 -118.33255334 209.64277465 -137 194 C-137 193.34 -137 192.68 -137 192 C-137.54140625 191.7834375 -138.0828125 191.566875 -138.640625 191.34375 C-141.81645344 189.53500003 -144.20728081 187.08276201 -146.75 184.5 C-147.50990234 183.75169922 -147.50990234 183.75169922 -148.28515625 182.98828125 C-152 179.25341139 -152 179.25341139 -152 177 C-152.66 177 -153.32 177 -154 177 C-158 171.58823529 -158 171.58823529 -158 169 C-158.66 169 -159.32 169 -160 169 C-166.74039228 157.05130461 -172.47839859 145.29578047 -176 132 C-176.17644043 131.33387695 -176.35288086 130.66775391 -176.53466797 129.98144531 C-183.94899888 100.28003247 -178.46254319 68.0397755 -163.10791016 41.83935547 C-152.82944938 24.7750268 -138.66118235 9.52925014 -121 0 C-120.01 0 -119.02 0 -118 0 C-118 -0.66 -118 -1.32 -118 -2 C-103.50730141 -8.54746281 -89.73814651 -13.43417549 -74 -16 C-72.86046875 -16.18691406 -71.7209375 -16.37382812 -70.546875 -16.56640625 C-45.46198626 -19.63295102 -21.62699566 -12.49740087 0 0 Z M-114 37 C-114 37.66 -114 38.32 -114 39 C-114.66 39 -115.32 39 -116 39 C-116 39.66 -116 40.32 -116 41 C-116.598125 41.268125 -117.19625 41.53625 -117.8125 41.8125 C-119.99847854 42.99917406 -121.41332594 44.09599113 -123 46 C-123 46.66 -123 47.32 -123 48 C-123.66 48 -124.32 48 -125 48 C-127.96235695 51.63323689 -127.96235695 51.63323689 -129 56 C-129.66 56 -130.32 56 -131 56 C-142.98464563 80.5386331 -148.08034967 104.03048481 -139.25 130.78125 C-135.25436755 141.07000356 -129.32116377 150.72455012 -122 159 C-121.34 159 -120.68 159 -120 159 C-119.34 160.32 -118.68 161.64 -118 163 C-117.34 163 -116.68 163 -116 163 C-116 163.66 -116 164.32 -116 165 C-114.03775951 166.67710242 -112.09502405 168.19061605 -110 169.6875 C-109.37859131 170.13158203 -108.75718262 170.57566406 -108.11694336 171.03320312 C-90.03933964 183.48781168 -68.00938974 188.11140749 -46.41015625 184.6953125 C-42.06906437 183.81018724 -38.0927061 182.68223329 -34 181 C-33.06929687 180.65066406 -32.13859375 180.30132812 -31.1796875 179.94140625 C-21.14139085 176.02621382 -10.96649112 170.37299895 -3 163 C-3 162.34 -3 161.68 -3 161 C-2.34 161 -1.68 161 -1 161 C-1 160.34 -1 159.68 -1 159 C-0.34 159 0.32 159 1 159 C17.37439678 140.10019874 23.92017109 118.18346262 22.875 93.4375 C21.14738972 76.11820698 13.23966443 60.04778436 2 47 C1.46890625 46.24976563 0.9378125 45.49953125 0.390625 44.7265625 C-0.06828125 44.15679687 -0.5271875 43.58703125 -1 43 C-1.66 43 -2.32 43 -3 43 C-3 42.34 -3 41.68 -3 41 C-3.66 41 -4.32 41 -5 41 C-5 40.34 -5 39.68 -5 39 C-20.12812706 25.08081614 -43.04824185 17.55878684 -63.3125 17.7890625 C-82.08807257 18.8630889 -98.90191768 25.9690752 -114 37 Z " fill="#1460AA" transform="translate(1046,252)"/>
<path d="M0 0 C5.4502187 2.31593377 9.08438618 5.05885933 11.37808228 10.64613342 C12.78294666 15.96333726 12.35807037 21.56920251 12.29296875 27.02734375 C12.28736523 28.38496937 12.2830987 29.7426011 12.28010559 31.10023499 C12.26871615 34.65297544 12.23930109 38.20534102 12.20599365 41.75793457 C12.17516443 45.39130585 12.16157296 49.02473841 12.14648438 52.65820312 C12.11442471 59.77228767 12.06330106 66.88611921 12 74 C12.55861442 73.99539104 13.11722883 73.99078207 13.69277096 73.98603344 C27.31520495 73.87538099 40.9375597 73.79307941 54.56034756 73.74093914 C61.14839392 73.7148744 67.73611528 73.67953206 74.32397461 73.62280273 C80.68471014 73.56837359 87.04513357 73.53855597 93.40608406 73.52561378 C95.82973199 73.51639364 98.25336334 73.49838876 100.67687798 73.47134972 C104.07849573 73.43491622 107.47883295 73.43006087 110.88061523 73.43237305 C111.87683899 73.41439667 112.87306274 73.39642029 113.8994751 73.37789917 C120.68586879 73.42763115 125.49968546 74.95626807 131 79 C135.03466602 83.71614512 134.49056042 88.72972516 134.34765625 94.67578125 C133.74890206 100.40094768 131.48969022 102.7751436 127.1875 106.3125 C120.80402242 109.69198813 113.62159506 109.14003894 106.56665039 109.11352539 C105.02892975 109.11374443 105.02892975 109.11374443 103.46014404 109.1139679 C100.08929286 109.11327413 96.71849772 109.10550689 93.34765625 109.09765625 C91.00353526 109.09579017 88.65941388 109.09436716 86.31529236 109.09336853 C80.15862951 109.08955836 74.00199041 109.0797409 67.84533691 109.06866455 C61.55770184 109.05841815 55.2700629 109.053864 48.98242188 109.04882812 C36.65493751 109.03811727 24.32747073 109.02105889 12 109 C12.08470966 120.77089729 12.1797095 132.54166355 12.28752708 144.31237316 C12.33728486 149.77910557 12.38361532 155.24582055 12.421875 160.71264648 C12.45898872 165.99714349 12.50541635 171.28148695 12.55806351 176.56585121 C12.57646984 178.57303462 12.59162745 180.58025076 12.60334396 182.58748436 C12.77558387 211.09778201 18.60244088 234.38499682 39 255.25 C40.68293823 256.88439194 41.89732817 257.94866408 44 259 C44 259.66 44 260.32 44 261 C44.71285156 261.26167969 45.42570312 261.52335937 46.16015625 261.79296875 C49.13559888 263.05763419 51.69796295 264.59886448 54.4375 266.3125 C61.0139818 270.19529368 67.70854843 272.77784333 75 275 C75.7940625 275.2475 76.588125 275.495 77.40625 275.75 C96.33776411 280.54953879 118.19584873 276.46267155 134.96289062 266.87792969 C138.05754941 264.98503521 141.07720106 262.9963232 144.07421875 260.953125 C146.3536828 259.43145341 148.51627115 258.13610955 151 257 C151 256.34 151 255.68 151 255 C156.59708278 249.79341137 160.9779614 247.58805708 168.70703125 247.73046875 C172.21805583 248.14317862 174.86340879 249.3983364 178 251 C178 251.66 178 252.32 178 253 C178.66 253 179.32 253 180 253 C183.78986339 258.45740328 184.65804742 263.39469379 184 270 C182.21033984 276.00062524 178.85815617 280.14859426 174 284 C173.34 284 172.68 284 172 284 C172 284.66 172 285.32 172 286 C170.01497235 287.64552369 168.0419706 289.14480748 165.9375 290.625 C165.3084375 291.0686792 164.679375 291.5123584 164.03125 291.96948242 C148.29939667 302.83575389 131.84822821 308.96789372 113 312 C112.08863281 312.185625 111.17726563 312.37125 110.23828125 312.5625 C95.64812509 314.53366706 80.25879225 313.5682415 66 310 C65.34128906 309.83902832 64.68257812 309.67805664 64.00390625 309.51220703 C44.9922263 304.68979991 24.35509839 293.59936222 11 279 C11 278.34 11 277.68 11 277 C10.34 277 9.68 277 9 277 C9 276.34 9 275.68 9 275 C8.34 275 7.68 275 7 275 C5.37947622 273.18342041 3.90227191 271.37507452 2.4375 269.4375 C1.99567383 268.85395752 1.55384766 268.27041504 1.09863281 267.66918945 C-18.08655408 241.85272009 -23.14235389 215.06006095 -23.16113281 183.39331055 C-23.16577145 181.55217899 -23.17079749 179.71104837 -23.17617798 177.86991882 C-23.18919164 172.90750017 -23.19572356 167.94509497 -23.20018864 162.98266196 C-23.20313352 159.87773509 -23.2072406 156.77281179 -23.21169281 153.66788673 C-23.22533022 143.93853356 -23.23501873 134.20918869 -23.2388947 124.47982663 C-23.2433853 113.27289362 -23.26099525 102.06608198 -23.2898953 90.85918587 C-23.31151315 82.17351778 -23.32159881 73.48788388 -23.32293582 64.80218917 C-23.32398251 59.62318692 -23.32986322 54.44429934 -23.34775543 49.26532555 C-23.3642409 44.400329 -23.36638932 39.53553341 -23.35761642 34.67051888 C-23.35684668 32.88876176 -23.36118056 31.10699379 -23.37107468 29.32526398 C-23.38381741 26.88719285 -23.37790547 24.44983141 -23.36749268 22.01176453 C-23.37554908 21.31243653 -23.38360548 20.61310854 -23.39190602 19.89258879 C-23.33967327 14.63915218 -22.01384063 10.77102924 -20 6 C-19.34 6 -18.68 6 -18 6 C-18 5.34 -18 4.68 -18 4 C-12.16972421 -0.1459739 -7.112933 -1.30503393 0 0 Z " fill="#115EA9" transform="translate(1584,158)"/>
<path d="M0 0 C1.64420981 0.87804696 3.28980321 1.75351411 4.9375 2.625 C9.1956632 5.01313336 13.41383452 7.66789529 17 11 C17 11.66 17 12.32 17 13 C17.56203125 13.2371875 18.1240625 13.474375 18.703125 13.71875 C21.51894042 15.28947697 23.47955416 17.21471464 25.75 19.5 C26.54921875 20.2940625 27.3484375 21.088125 28.171875 21.90625 C30 24 30 24 30 26 C30.66 26 31.32 26 32 26 C33.65040413 27.96330602 35.14641912 29.91143159 36.625 32 C37.0686792 32.62575928 37.5123584 33.25151855 37.96948242 33.89624023 C48.41010576 49.02869001 54.93825197 65.93982412 58 84 C58.17360046 84.82105225 58.34720093 85.64210449 58.52606201 86.48803711 C59.20623104 91.52820784 59.15592769 96.52108383 59.16113281 101.6015625 C59.16609772 102.76322937 59.17106262 103.92489624 59.17617798 105.12176514 C59.19075763 108.95618282 59.19759327 112.79055918 59.203125 116.625 C59.20742383 118.61815458 59.21172319 120.61130916 59.2160995 122.60446358 C59.22789054 128.15367656 59.2354413 133.70287958 59.2388947 139.25210381 C59.24337933 146.41745069 59.26095496 153.58260719 59.2898953 160.74789619 C59.31152727 166.29711355 59.32159968 171.84627736 59.32293582 177.39553642 C59.32398217 180.70560956 59.33130752 184.01546264 59.34775543 187.32550049 C59.36479363 191.01662696 59.36294122 194.70728775 59.35644531 198.3984375 C59.3656601 199.4895282 59.37487488 200.5806189 59.3843689 201.70477295 C59.34964417 207.99779835 58.96503216 212.82371873 54.46484375 217.64453125 C47.99661219 222.59082597 43.0885276 222.72816429 35 222 C32.32438221 220.98787492 31.15518685 219.98504052 29 218 C28.4225 217.525625 27.845 217.05125 27.25 216.5625 C24.46264215 213.07830269 23.7501811 209.40184928 23.7484436 205.03338623 C23.74036934 203.57062256 23.74036934 203.57062256 23.73213196 202.07830811 C23.73625595 201.0196051 23.74037994 199.9609021 23.74462891 198.87011719 C23.73919823 197.18360046 23.73919823 197.18360046 23.73365784 195.4630127 C23.72676638 193.0212968 23.72425793 190.57956552 23.72560501 188.13784027 C23.72657177 184.25969604 23.71360626 180.38182787 23.69662476 176.50372314 C23.65042256 165.47678749 23.62570403 154.44988049 23.61914062 143.42285156 C23.614954 136.67367064 23.58967691 129.92478172 23.55381393 123.17569733 C23.54408068 120.61638356 23.54164818 118.05703026 23.54698563 115.49770355 C23.58028846 98.72939023 23.57347724 81.81562705 15.3125 66.6875 C14.9721875 66.0378125 14.631875 65.388125 14.28125 64.71875 C10.82130189 58.31470059 6.69214568 52.57035476 2 47 C1.41089844 46.28585937 0.82179687 45.57171875 0.21484375 44.8359375 C-13.8746129 29.29108643 -35.96313949 21.4213835 -56.37109375 19.71875 C-76.57796635 19.12515766 -96.0231543 26.95873079 -112 39 C-113.67472083 40.65857339 -115.34382935 42.32290301 -117 44 C-117.66 44 -118.32 44 -119 44 C-119.25394531 44.55945313 -119.50789063 45.11890625 -119.76953125 45.6953125 C-121.1733473 48.32468224 -122.86371107 50.51733179 -124.6875 52.875 C-132.1072525 63.00141358 -136.79599019 73.90744684 -140 86 C-140.17713846 86.61443057 -140.35427692 87.22886114 -140.53678322 87.86191082 C-141.06078948 90.28058858 -141.13071506 92.47651254 -141.13803101 94.95161438 C-141.14348434 95.94828125 -141.14893768 96.94494812 -141.15455627 97.97181702 C-141.15611977 99.60285622 -141.15611977 99.60285622 -141.15771484 101.2668457 C-141.16279556 102.41686066 -141.16787628 103.56687561 -141.17311096 104.7517395 C-141.18381389 107.25024465 -141.19243437 109.74875938 -141.19923019 112.24727821 C-141.21101669 116.2023533 -141.23046897 120.15731908 -141.25234985 124.11235046 C-141.31418718 135.3579825 -141.36825638 146.60360918 -141.40136719 157.84936523 C-141.41974107 164.062706 -141.44871049 170.27590426 -141.4893719 176.48914021 C-141.51039371 179.77408768 -141.52420361 183.05881742 -141.52817917 186.34383583 C-141.53308724 190.0110931 -141.55624382 193.67782098 -141.58349609 197.3449707 C-141.58048996 198.42625748 -141.57748383 199.50754425 -141.5743866 200.62159729 C-141.64636519 207.14351794 -142.03766113 212.63815995 -146.53515625 217.7421875 C-153.29219532 222.75380216 -158.65201888 222.66555658 -167 222 C-171.54172544 220.04235972 -173.77566593 217.52338773 -176.15953255 213.20582581 C-177.89012542 208.66384573 -177.54347069 203.85857577 -177.50170898 199.06054688 C-177.50711197 197.87417633 -177.51251495 196.68780579 -177.51808167 195.46548462 C-177.52841648 192.22508846 -177.52089516 188.98536068 -177.50437045 185.74500847 C-177.49044321 182.33541396 -177.49698969 178.9258481 -177.50050354 175.51623535 C-177.50320258 169.78319797 -177.48976674 164.05037026 -177.46655273 158.31738281 C-177.44004641 151.72649331 -177.43816455 145.13595644 -177.4499411 138.54503202 C-177.46080062 132.17036226 -177.45446182 125.79581777 -177.44038582 119.42115784 C-177.43468602 116.72617058 -177.43466083 114.03127684 -177.43945122 111.33628845 C-177.46033338 84.45956891 -177.46033338 84.45956891 -174 72 C-173.80811096 71.24799316 -173.61622192 70.49598633 -173.41851807 69.72119141 C-170.71385182 59.70778292 -166.06466087 50.96455373 -161 42 C-160.35224609 40.73542969 -160.35224609 40.73542969 -159.69140625 39.4453125 C-156.37575218 32.99756999 -151.99583544 27.25102547 -147 22 C-146.34 22 -145.68 22 -145 22 C-145 21.34 -145 20.68 -145 20 C-144.34 20 -143.68 20 -143 20 C-142.79375 19.443125 -142.5875 18.88625 -142.375 18.3125 C-140.42316968 15.02987629 -138.05769006 13.29326754 -135 11 C-134.34 11 -133.68 11 -133 11 C-133 10.34 -133 9.68 -133 9 C-131.11947058 7.54805635 -129.16863151 6.18635395 -127.1875 4.875 C-126.10855469 4.15054688 -125.02960938 3.42609375 -123.91796875 2.6796875 C-121 1 -121 1 -118 1 C-118 0.34 -118 -0.32 -118 -1 C-79.6140256 -19.66858864 -37.62476603 -22.07013715 0 0 Z " fill="#125EA9" transform="translate(222,249)"/>
<path d="M0 0 C0.99 0.495 0.99 0.495 2 1 C-11.5793874 26.13517981 -11.5793874 26.13517981 -17.60546875 34.8671875 C-19.78966659 38.20772537 -21.62088151 41.72764013 -23.5 45.24609375 C-24.93339899 47.8777247 -26.44232424 50.44038177 -28 53 C-30.01019498 56.31060461 -31.91778554 59.6502579 -33.75 63.0625 C-36.66735531 68.46640944 -39.77132191 73.74616447 -42.90087891 79.02856445 C-46.37213967 84.90038401 -49.75662127 90.81867822 -53.125 96.75 C-57.04405543 103.64624528 -61.07484947 110.4381332 -65.2734375 117.16796875 C-67.46226049 120.7582327 -69.46061787 124.43288261 -71.44921875 128.13671875 C-77.82047212 139.90026717 -84.74166393 151.35349819 -91.69140625 162.78125 C-94.14353147 166.82757674 -96.50744434 170.89596902 -98.75 175.0625 C-101.2369285 179.66459964 -103.84025398 184.18418701 -106.5 188.6875 C-106.9115332 189.38536621 -107.32306641 190.08323242 -107.74707031 190.80224609 C-109.75745532 194.20885618 -111.77080525 197.61367173 -113.7890625 201.015625 C-115.6980092 204.23648157 -117.59936051 207.46173583 -119.5 210.6875 C-120.11166016 211.71512451 -120.72332031 212.74274902 -121.35351562 213.80151367 C-121.92779297 214.77838135 -122.50207031 215.75524902 -123.09375 216.76171875 C-123.60615234 217.62756592 -124.11855469 218.49341309 -124.64648438 219.38549805 C-127.44835729 224.46716824 -127.44835729 224.46716824 -127.48022461 230.02294922 C-127.12452393 230.61092285 -126.76882324 231.19889648 -126.40234375 231.8046875 C-126.0148999 232.46702393 -125.62745605 233.12936035 -125.22827148 233.81176758 C-124.80231689 234.49263428 -124.3763623 235.17350098 -123.9375 235.875 C-123.51863525 236.58100342 -123.09977051 237.28700684 -122.66821289 238.0144043 C-120.49388815 241.65762862 -118.22599889 245.24004679 -115.9375 248.8125 C-114 252 -114 252 -114 255 C-113.34 255 -112.68 255 -112 255 C-111.50693359 255.93005859 -111.50693359 255.93005859 -111.00390625 256.87890625 C-107.97836514 262.51182425 -104.81331294 268.03341592 -101.5 273.5 C-98.90234256 277.78648371 -96.36767113 282.08034723 -94 286.5 C-91.68798059 290.81194805 -89.22268969 295.00494911 -86.6875 299.1875 C-83.51227549 304.43000119 -80.4301443 309.71360057 -77.4375 315.0625 C-76.87385742 316.06978149 -76.87385742 316.06978149 -76.29882812 317.09741211 C-75.5537556 318.43018157 -74.80895916 319.76310542 -74.06445312 321.09619141 C-68.71554798 330.66288 -63.16266624 340.08551867 -57.49731445 349.46679688 C-54.36096054 354.67806084 -51.32099135 359.92908435 -48.375 365.25 C-44.96108956 371.41503855 -41.30000786 377.38789143 -37.52783203 383.33935547 C-34.61081234 387.96188608 -31.92484132 392.66392224 -29.359375 397.4921875 C-27.51787334 400.88944056 -25.50372179 404.17180288 -23.49609375 407.47265625 C-21.94510022 410.09274193 -20.49820998 412.75268425 -19.0625 415.4375 C-17.00524272 419.26119808 -14.80554233 422.92330075 -12.4375 426.5625 C-4 439.6125 -4 439.6125 -4 444 C-7.83450856 442.45212498 -10.02555699 440.06277254 -12.75 437 C-13.54921875 436.113125 -14.3484375 435.22625 -15.171875 434.3125 C-17 432 -17 432 -17 430 C-17.66 430 -18.32 430 -19 430 C-19 429.34 -19 428.68 -19 428 C-19.66 428 -20.32 428 -21 428 C-22.41015625 426.6015625 -22.41015625 426.6015625 -24.0625 424.625 C-27.65893924 420.37741597 -31.39792341 416.28224201 -35.1796875 412.19921875 C-37 410 -37 410 -38 407 C-38.66 407 -39.32 407 -40 407 C-41.375 405.63671875 -41.375 405.63671875 -43 403.6875 C-46.8819307 399.09976372 -50.95638472 394.70985957 -55.05859375 390.3203125 C-57 388 -57 388 -57 386 C-57.66 386 -58.32 386 -59 386 C-59 385.34 -59 384.68 -59 384 C-59.66 384 -60.32 384 -61 384 C-62.41015625 382.6015625 -62.41015625 382.6015625 -64.0625 380.625 C-67.65893924 376.37741597 -71.39792341 372.28224201 -75.1796875 368.19921875 C-77 366 -77 366 -78 363 C-78.66 363 -79.32 363 -80 363 C-80 362.34 -80 361.68 -80 361 C-80.66 361 -81.32 361 -82 361 C-83.4453125 359.56640625 -83.4453125 359.56640625 -85.125 357.5625 C-88.49378571 353.58378677 -91.9703982 349.7229439 -95.49609375 345.8828125 C-97 344 -97 344 -97 342 C-97.66 342 -98.32 342 -99 342 C-99 341.34 -99 340.68 -99 340 C-99.66 340 -100.32 340 -101 340 C-102.41015625 338.6015625 -102.41015625 338.6015625 -104.0625 336.625 C-107.65893924 332.37741597 -111.39792341 328.28224201 -115.1796875 324.19921875 C-117 322 -117 322 -118 319 C-118.66 319 -119.32 319 -120 319 C-120 318.34 -120 317.68 -120 317 C-120.66 317 -121.32 317 -122 317 C-123.41015625 315.6015625 -123.41015625 315.6015625 -125.0625 313.625 C-128.65893924 309.37741597 -132.39792341 305.28224201 -136.1796875 301.19921875 C-138 299 -138 299 -139 296 C-139.66 296 -140.32 296 -141 296 C-142.375 294.63671875 -142.375 294.63671875 -144 292.6875 C-146.93749422 289.22982451 -149.93724616 285.84755259 -153 282.5 C-155.80631328 279.42441528 -158.59243789 276.33953227 -161.3125 273.1875 C-165.17906031 268.73314905 -169.22015687 264.4432819 -173.24365234 260.13134766 C-176.02308945 257.14726979 -178.77813751 254.15493933 -181.4375 251.0625 C-185.48490315 246.36097108 -189.76739909 241.87392067 -194.02709961 237.36547852 C-195.69824382 235.58897805 -197.35048471 233.79655899 -199 232 C-199.82113281 231.12730469 -200.64226563 230.25460937 -201.48828125 229.35546875 C-203 227 -203 227 -203.0625 224.54296875 C-201.63286902 221.1213152 -199.56310649 218.98118901 -197 216.3125 C-193.60430215 212.93780615 -193.60430215 212.93780615 -191 209 C-190.34 209 -189.68 209 -189 209 C-189 208.34 -189 207.68 -189 207 C-188.34 207 -187.68 207 -187 207 C-186.72744385 206.40525879 -186.4548877 205.81051758 -186.17407227 205.19775391 C-185.03199951 203.05990011 -183.87707268 201.58388243 -182.21484375 199.8359375 C-181.68439453 199.27132812 -181.15394531 198.70671875 -180.60742188 198.125 C-180.05634766 197.5475 -179.50527344 196.97 -178.9375 196.375 C-175.03429271 192.50673691 -175.03429271 192.50673691 -172 188 C-171.34 188 -170.68 188 -170 188 C-170 187.34 -170 186.68 -170 186 C-169.34 186 -168.68 186 -168 186 C-167.60470093 185.12142334 -167.60470093 185.12142334 -167.20141602 184.22509766 C-165.94897158 181.90549218 -164.59683426 180.29795369 -162.77734375 178.3984375 C-161.84631836 177.41617188 -161.84631836 177.41617188 -160.89648438 176.4140625 C-160.25001953 175.74117187 -159.60355469 175.06828125 -158.9375 174.375 C-157.65291865 173.03058186 -156.37026898 171.68431453 -155.08984375 170.3359375 C-154.52128662 169.74345215 -153.95272949 169.1509668 -153.36694336 168.54052734 C-151.90616037 167.02826021 -151.90616037 167.02826021 -151 165 C-150.34 165 -149.68 165 -149 165 C-149 164.34 -149 163.68 -149 163 C-148.34 163 -147.68 163 -147 163 C-146.60470093 162.12142334 -146.60470093 162.12142334 -146.20141602 161.22509766 C-144.94897158 158.90549218 -143.59683426 157.29795369 -141.77734375 155.3984375 C-140.84631836 154.41617188 -140.84631836 154.41617188 -139.89648438 153.4140625 C-139.25001953 152.74117187 -138.60355469 152.06828125 -137.9375 151.375 C-136.65291865 150.03058186 -135.37026898 148.68431453 -134.08984375 147.3359375 C-133.52128662 146.74345215 -132.95272949 146.1509668 -132.36694336 145.54052734 C-130.90616037 144.02826021 -130.90616037 144.02826021 -130 142 C-129.34 142 -128.68 142 -128 142 C-128 141.34 -128 140.68 -128 140 C-127.34 140 -126.68 140 -126 140 C-125.72744385 139.40525879 -125.4548877 138.81051758 -125.17407227 138.19775391 C-124.03199951 136.05990011 -122.87707268 134.58388243 -121.21484375 132.8359375 C-120.68439453 132.27132812 -120.15394531 131.70671875 -119.60742188 131.125 C-119.05634766 130.5475 -118.50527344 129.97 -117.9375 129.375 C-114.03429271 125.50673691 -114.03429271 125.50673691 -111 121 C-110.34 121 -109.68 121 -109 121 C-109 120.34 -109 119.68 -109 119 C-108.34 119 -107.68 119 -107 119 C-106.73646729 118.41428223 -106.47293457 117.82856445 -106.20141602 117.22509766 C-104.94897158 114.90549218 -103.59683426 113.29795369 -101.77734375 111.3984375 C-100.84631836 110.41617188 -100.84631836 110.41617188 -99.89648438 109.4140625 C-98.92678711 108.40472656 -98.92678711 108.40472656 -97.9375 107.375 C-96.65291865 106.03058186 -95.37026898 104.68431453 -94.08984375 103.3359375 C-93.52128662 102.74345215 -92.95272949 102.1509668 -92.36694336 101.54052734 C-90.90616037 100.02826021 -90.90616037 100.02826021 -90 98 C-89.34 98 -88.68 98 -88 98 C-88 97.34 -88 96.68 -88 96 C-87.34 96 -86.68 96 -86 96 C-85.73646729 95.41428223 -85.47293457 94.82856445 -85.20141602 94.22509766 C-83.94897158 91.90549218 -82.59683426 90.29795369 -80.77734375 88.3984375 C-79.84631836 87.41617188 -79.84631836 87.41617188 -78.89648438 86.4140625 C-77.92678711 85.40472656 -77.92678711 85.40472656 -76.9375 84.375 C-75.65291865 83.03058186 -74.37026898 81.68431453 -73.08984375 80.3359375 C-72.52128662 79.74345215 -71.95272949 79.1509668 -71.36694336 78.54052734 C-69.90616037 77.02826021 -69.90616037 77.02826021 -69 75 C-68.34 75 -67.68 75 -67 75 C-66.72760498 74.40541992 -66.45520996 73.81083984 -66.17456055 73.19824219 C-65.02970512 71.05559444 -63.87355302 69.57993363 -62.20703125 67.828125 C-61.66312744 67.25070557 -61.11922363 66.67328613 -60.55883789 66.07836914 C-59.98254639 65.47500732 -59.40625488 64.87164551 -58.8125 64.25 C-57.61893899 62.98387618 -56.42622175 61.71695639 -55.234375 60.44921875 C-54.66654297 59.8464209 -54.09871094 59.24362305 -53.51367188 58.62255859 C-51.81874631 56.80570774 -50.17878346 54.9495526 -48.5625 53.0625 C-45.15194976 49.10489408 -41.57308664 45.31015031 -38 41.5 C-33.86636275 37.09182361 -29.77747255 32.6677219 -25.8359375 28.0859375 C-22.76298776 24.59454354 -19.5808737 21.2035298 -16.41723633 17.79443359 C-13.03178203 14.13901965 -9.72709435 10.42570719 -6.46875 6.65625 C-4.40793955 4.33235737 -2.22934248 2.16178665 0 0 Z " fill="#E42616" transform="translate(897,41)"/>
<path d="M0 0 C6.28371854 3.0509373 11.53725323 7.06183562 14.015625 13.734375 C14.69419671 15.77009012 15.34819225 17.81422858 15.97265625 19.8671875 C17.11460467 23.34947887 18.54024264 26.63924881 20 30 C20.93215136 32.41073628 21.84801492 34.82781535 22.75 37.25 C23.00531494 37.93545898 23.26062988 38.62091797 23.52368164 39.32714844 C24.06959984 40.79458182 24.61458007 42.26236444 25.15869141 43.73046875 C26.00321769 46.0086801 26.85119527 48.28558846 27.69921875 50.5625 C31.07450999 59.65158183 34.3339103 68.7744197 37.51318359 77.93383789 C39.48304885 83.58622902 41.5790294 89.17596597 43.76171875 94.75 C45.20527942 98.53877752 46.5430286 102.35840805 47.875 106.1875 C49.93957566 112.11465813 52.13154143 117.97518187 54.4375 123.8125 C57.25592329 130.95871708 59.8502446 138.16398899 62.359375 145.42407227 C65.44258416 154.33102406 68.71252346 163.16678037 72 172 C75.02574963 164.53219241 78.00887392 157.0543773 80.8125 149.5 C83.29880319 142.80288703 85.88658867 136.14847504 88.5 129.5 C91.3083085 122.35147278 94.08301531 115.19417393 96.76171875 107.99609375 C99.15184956 101.57425877 101.59716003 95.17382283 104.04150391 88.77246094 C106.02834901 83.56444676 107.99368977 78.34920202 109.9375 73.125 C111.98352585 67.62643831 114.11222152 62.16388124 116.26879883 56.70776367 C119.59343047 48.29374397 122.80644989 39.8679835 125.75 31.3125 C134.36786354 6.37850592 134.36786354 6.37850592 142.875 1.625 C147.42590895 -0.40330774 151.25736866 -0.96586076 156.07421875 0.73046875 C161.19807533 3.05088439 164.44298142 5.88596285 167 11 C167.94702735 20.53209459 166.15383841 27.85709542 162.4375 36.5625 C161.50792921 38.85185615 160.58086587 41.14223194 159.65625 43.43359375 C159.19992187 44.54976074 158.74359375 45.66592773 158.2734375 46.81591797 C156.51778503 51.20572233 154.95897813 55.64971473 153.4375 60.125 C149.84493456 70.58300077 145.94545661 80.92003595 142.03271484 91.26171875 C141.10414366 93.72385926 140.18400481 96.18884584 139.26953125 98.65625 C139.00922119 99.35717773 138.74891113 100.05810547 138.48071289 100.78027344 C137.81415514 102.57706191 137.14918064 104.37443752 136.484375 106.171875 C135.27066377 109.37579027 133.94031941 112.52449243 132.60546875 115.6796875 C130.02581525 121.83552607 127.77196014 128.07867434 125.5625 134.375 C122.7795322 142.21827532 119.84878729 149.87831304 116.46484375 157.48046875 C114.24076127 162.82419759 112.40894468 168.29510532 110.53027344 173.76782227 C108.68985153 179.10392978 106.68152857 184.30568803 104.44140625 189.48828125 C102.34802559 194.58841463 100.47244995 199.76639117 98.5625 204.9375 C95.13001185 214.20137408 91.42036988 223.15926023 87 232 C86.34 232 85.68 232 85 232 C85 232.66 85 233.32 85 234 C84.34 234 83.68 234 83 234 C83 234.66 83 235.32 83 236 C76.70769707 238.64939071 70.31947803 239.04140487 63.8125 237 C51.85037567 228.49360048 48.73363262 214.38909404 44.4140625 201.08203125 C42.53998578 195.51362214 40.28522935 190.09017777 38.02978516 184.66723633 C35.75922465 179.13983702 33.81460279 173.543855 31.95101929 167.86653137 C29.66268226 160.91713087 27.15631712 154.05181534 24.625 147.1875 C24.14190137 145.87207975 23.65882877 144.55664995 23.17578125 143.24121094 C20.26048241 135.32012889 17.25300385 127.43980029 14.14550781 119.59204102 C12.42839451 115.21952709 10.99658981 110.84388727 9.73046875 106.32421875 C8.87814888 103.61229188 7.805582 101.05106076 6.6875 98.4375 C3.1004187 90.03900427 0.21326241 81.39854444 -2.77050781 72.77246094 C-6.31870112 62.47706306 -6.31870112 62.47706306 -10.375 52.375 C-12.89712606 46.42939792 -15.12742783 40.38832376 -17.3125 34.3125 C-17.67456543 33.33780762 -18.03663086 32.36311523 -18.40966797 31.35888672 C-21.01076904 24.01055745 -22.74882422 16.69989001 -19.5 9.25 C-15.72026862 1.67727502 -8.30577269 -1.99901648 0 0 Z " fill="#115EA9" transform="translate(1127,233)"/>
<path d="M0 0 C0.66 0.33 1.32 0.66 2 1 C0.09042286 3.13176064 -1.82708763 5.2553245 -3.75 7.375 C-4.28882813 7.97828125 -4.82765625 8.5815625 -5.3828125 9.203125 C-6.17558594 10.07324219 -6.17558594 10.07324219 -6.984375 10.9609375 C-7.46616211 11.49509277 -7.94794922 12.02924805 -8.44433594 12.57958984 C-10.16979726 14.1550346 -11.87547258 15.04997548 -14 16 C-14 16.66 -14 17.32 -14 18 C-14.5775 18.556875 -15.155 19.11375 -15.75 19.6875 C-18.54205931 22.55711651 -20.10447159 25.47973295 -22 29 C-22.66 29 -23.32 29 -24 29 C-19.63456578 17.15389211 -8.83660537 8.61505114 0 0 Z " fill="#5084BB" transform="translate(910,262)"/>
<path d="M0 0 C0.33 0.66 0.66 1.32 1 2 C0.319375 2.495 -0.36125 2.99 -1.0625 3.5 C-3.50796589 5.58124757 -5.43076917 7.57306844 -7.5 10 C-10.10604426 13.05654207 -12.73540876 15.62575183 -16 18 C-16.66 17.67 -17.32 17.34 -18 17 C-15.37906078 14.35011735 -12.75257802 11.70579857 -10.125 9.0625 C-9.37863281 8.30775391 -8.63226563 7.55300781 -7.86328125 6.77539062 C-7.14785156 6.05673828 -6.43242187 5.33808594 -5.6953125 4.59765625 C-5.03547363 3.93258057 -4.37563477 3.26750488 -3.69580078 2.58227539 C-2 1 -2 1 0 0 Z " fill="#5083BB" transform="translate(350,261)"/>
<path d="M0 0 C0.66 0.33 1.32 0.66 2 1 C0.68 3.31 -0.64 5.62 -2 8 C-2.66 6.68 -3.32 5.36 -4 4 C-2.68 2.68 -1.36 1.36 0 0 Z " fill="#E95346" transform="translate(897,41)"/>
<path d="M0 0 C7.38461538 0.49230769 7.38461538 0.49230769 10.5 3.0625 C10.995 3.701875 11.49 4.34125 12 5 C7.61110675 4.33501617 4.0188515 2.81242323 0 1 C0 0.67 0 0.34 0 0 Z " fill="#628FC1" transform="translate(446,272)"/>
<path d="M0 0 C3.2542015 2.83430453 4.5206753 4.68607774 5 9 C4.01 8.67 3.02 8.34 2 8 C1.26953125 6.15234375 1.26953125 6.15234375 0.8125 3.9375 C0.65394531 3.20402344 0.49539063 2.47054688 0.33203125 1.71484375 C0.22246094 1.14894531 0.11289062 0.58304687 0 0 Z " fill="#EF837A" transform="translate(888,476)"/>
</svg>
