<?xml version="1.0" encoding="UTF-8"?>
<svg version="1.1" xmlns="http://www.w3.org/2000/svg" width="28" height="28">
<path d="M0 0 C0.66 0.33 1.32 0.66 2 1 C1.42378906 1.77923828 1.42378906 1.77923828 0.8359375 2.57421875 C-0.61577311 4.67415308 -1.90974897 6.69021915 -3 9 C-2.58612501 11.74303573 -2.58612501 11.74303573 -1 14 C-0.33333333 15.66666667 0.33333333 17.33333333 1 19 C-0.65 17.68 -2.3 16.36 -4 15 C-8.54074179 16.42358391 -11.03973147 18.72132073 -14.3125 22.125 C-15.19550781 23.03507812 -16.07851563 23.94515625 -16.98828125 24.8828125 C-17.65214844 25.58148437 -18.31601562 26.28015625 -19 27 C-19 23.11708254 -17.62139506 21.53247465 -15.5 18.3125 C-14.8503125 17.31863281 -14.200625 16.32476563 -13.53125 15.30078125 C-13.0259375 14.54152344 -12.520625 13.78226563 -12 13 C-14.31 9.7 -16.62 6.4 -19 3 C-18.67 2.34 -18.34 1.68 -18 1 C-15.03 3.64 -12.06 6.28 -9 9 C-7.329375 7.6078125 -7.329375 7.6078125 -5.625 6.1875 C-4.99851562 5.66542969 -4.37203125 5.14335938 -3.7265625 4.60546875 C-1.7778952 2.91774261 -1.7778952 2.91774261 0 0 Z " fill="#E42617" transform="translate(24,1)"/>
<path d="" fill="#E5291A" transform="translate(0,0)"/>
</svg>
